<?xml version="1.0" ?><svg style="enable-background:new 0 0 48 48;" version="1.1" viewBox="0 0 48 48" xml:space="preserve" xmlns="http://www.w3.org/2000/svg" xmlns:xlink="http://www.w3.org/1999/xlink"><g id="Icons"><g><path d="M23.99731,10.78104c-5.36005,0-9.70001,4.35004-9.70001,9.71002    c0,1.71002,0.44,3.31,1.21997,4.71002l7.76001,11.63001c0.34003,0.50995,1.10004,0.50995,1.44,0l7.77002-11.63001    c0.77997-1.40002,1.21997-3,1.21997-4.71002C33.70727,15.13107,29.3573,10.78104,23.99731,10.78104z M24.32727,26.67105    c-2.83997,0.17999-5.27997-1.96997-5.45996-4.81c-0.17999-2.83002,1.96997-5.27997,4.81-5.46002    c2.82996-0.17999,5.27997,1.98004,5.45996,4.81006C29.31726,24.05105,27.15728,26.49106,24.32727,26.67105z" style="fill:#4AA0EC;"/><path d="    M32.48301,25.20076l-7.76333,11.63005c-0.34316,0.51408-1.09871,0.51408-1.44187,0l-7.76333-11.63005l0.00163-0.0043    c-0.78238-1.39361-1.22246-2.99503-1.22246-4.70648c0-5.35438,4.33974-9.70635,9.70635-9.70635    c5.35439,0,9.70635,4.35196,9.70635,9.70635c0,1.71145-0.44009,3.31287-1.22247,4.70648L32.48301,25.20076z" style="fill:none;stroke:#303030;stroke-width:0.7;stroke-linecap:round;stroke-linejoin:round;stroke-miterlimit:10;"/><path d="    M30.97119,17.76665c0.17787,0.62385,0.26063,1.28602,0.23215,1.96898" style="fill:none;stroke:#303030;stroke-width:0.7;stroke-linecap:round;stroke-linejoin:round;stroke-miterlimit:10;"/><path d="    M25.22595,13.2381c2.09651,0.08741,3.91058,1.20312,4.9756,2.83991" style="fill:none;stroke:#303030;stroke-width:0.7;stroke-linecap:round;stroke-linejoin:round;stroke-miterlimit:10;"/><ellipse cx="24" cy="21.53893" rx="5.14617" ry="5.14617" style="fill:none;stroke:#303030;stroke-width:0.7;stroke-linecap:round;stroke-linejoin:round;stroke-miterlimit:10;" transform="matrix(0.998 -0.06316 0.06316 0.998 -1.31242 1.55877)"/></g></g></svg>